<?xml version="1.0"?>
<svg version="1.1" xmlns="http://www.w3.org/2000/svg" width="200" height="100" style=""><path fill="#24e04d" d="M28.398,45.8l-3.57,0.84l0,24.15c0,5.04-2.94,8.19-7.98,8.19c-1.05,0-2.688-0.21-2.688-0.21l0.378-3.15l2.1,0c2.73,0,3.78-1.47,3.78-3.99l0-24.99l-3.57-0.84l0-2.31l11.55-0.21l0,2.52z M45.3492,50c6.3,0,9.87,4.41,9.87,11.13c0,7.14-4.2,11.97-10.5,11.97s-10.08-3.78-10.08-11.34c0-7.14,4.41-11.76,10.71-11.76z M45.1392,53.36c-4.2,0-6.09,2.73-6.09,8.19c0,5.04,1.68,8.19,5.88,8.19s5.88-2.94,5.88-8.4c0-4.62-1.47-7.98-5.67-7.98z M67.5504,40.34l0,12.096c1.386-1.092,3.57-2.436,6.3-2.436c6.09,0,8.82,4.41,8.82,10.92c0,7.14-3.99,12.18-11.55,12.18c-4.62,0-7.77-1.05-7.77-1.05l0-28.35l-3.36-0.84l0-2.31z M67.5504,56.09l0,13.23s1.092,0.42,4.2,0.42c4.872,0,6.51-3.78,6.51-8.4s-1.47-7.98-5.25-7.98s-5.46,2.73-5.46,2.73z M96.4716,69.32l3.99,0.84l0,2.52l-11.34,0l0-2.52l3.57-0.84l0-22.68l-3.57-0.84l0-2.31l8.82-0.21l13.86,23.478l0-20.118l-3.57-0.84l0-2.31l10.92-0.21l0,2.52l-3.57,0.84l0,26.04l-5.25,0l-13.86-23.142l0,19.782z M144.0828,62.18l-14.49,0c0,4.62,2.478,7.56,6.09,7.56c4.2,0,7.056-2.31,7.056-2.31l1.47,2.184s-3.906,3.486-8.946,3.486c-6.72,0-10.08-4.41-10.08-11.34c0-6.72,4.2-11.76,10.29-11.76s8.82,3.57,8.82,9.87c0,1.05-0.21,2.226-0.21,2.31z M129.7608,59.03l10.08,0c0-3.15-1.218-5.754-4.578-5.754s-5.25,2.604-5.502,5.754z M153.936,65.96l0.462,3.612s1.26,0.378,3.528,0.378c2.52,0,4.746-0.714,4.746-3.318c0-4.536-11.718-2.436-11.718-10.08c0-4.368,3.36-6.552,7.686-6.552c3.318,0,7.182,1.26,7.182,1.26l-0.126,5.67l-2.73,0l-0.672-3.276s-1.302-0.504-3.402-0.504c-2.142,0-3.738,0.672-3.738,2.814c0,4.494,11.718,2.772,11.718,9.954c0,4.83-4.2,7.182-9.24,7.182c-3.864,0-6.636-0.924-6.636-0.924l0-6.216l2.94,0z M186.9732,50.63l0,3.15l-6.09,0l0,13.482c0,1.932,0.924,2.562,2.1,2.562c1.008,0,2.184-0.462,3.276-1.05l1.134,2.226c-1.89,1.386-3.78,2.1-5.88,2.1c-2.52,0-4.83-1.386-4.83-6.09l0-13.23l-4.2,0l0-2.73l4.2-0.42l0-5.292l4.2-0.84l0,6.132l6.09,0z"/><path fill="#" d=""/></svg>
